<mxfile host="app.diagrams.net" agent="Mozilla/5.0 (Windows NT 10.0; Win64; x64; rv:128.0) Gecko/20100101 Firefox/128.0" version="24.7.16">
  <diagram name="Page-1" id="TVbX9KgjACldvgUGH_jM">
    <mxGraphModel dx="1434" dy="746" grid="1" gridSize="10" guides="1" tooltips="1" connect="1" arrows="1" fold="1" page="1" pageScale="1" pageWidth="1169" pageHeight="827" math="0" shadow="0">
      <root>
        <mxCell id="0" />
        <mxCell id="1" parent="0" />
        <mxCell id="oGcL695DofoNEhs4g2Zo-1" value="Scribus" style="swimlane;fontStyle=0;childLayout=stackLayout;horizontal=1;startSize=26;fillColor=#e1d5e7;horizontalStack=0;resizeParent=1;resizeParentMax=0;resizeLast=0;collapsible=1;marginBottom=0;whiteSpace=wrap;html=1;strokeColor=#9673a6;" parent="1" vertex="1" collapsed="1">
          <mxGeometry x="380" y="180" width="110" height="30" as="geometry">
            <mxRectangle x="390" y="285" width="140" height="78" as="alternateBounds" />
          </mxGeometry>
        </mxCell>
        <mxCell id="oGcL695DofoNEhs4g2Zo-2" value="+ description: type" style="text;strokeColor=none;fillColor=none;align=left;verticalAlign=top;spacingLeft=4;spacingRight=4;overflow=hidden;rotatable=0;points=[[0,0.5],[1,0.5]];portConstraint=eastwest;whiteSpace=wrap;html=1;" parent="oGcL695DofoNEhs4g2Zo-1" vertex="1">
          <mxGeometry y="26" width="140" height="26" as="geometry" />
        </mxCell>
        <mxCell id="oGcL695DofoNEhs4g2Zo-3" value="+ contenu: type" style="text;strokeColor=none;fillColor=none;align=left;verticalAlign=top;spacingLeft=4;spacingRight=4;overflow=hidden;rotatable=0;points=[[0,0.5],[1,0.5]];portConstraint=eastwest;whiteSpace=wrap;html=1;" parent="oGcL695DofoNEhs4g2Zo-1" vertex="1">
          <mxGeometry y="52" width="140" height="26" as="geometry" />
        </mxCell>
        <mxCell id="oGcL695DofoNEhs4g2Zo-6" value="Informatique" style="swimlane;fontStyle=0;childLayout=stackLayout;horizontal=1;startSize=26;fillColor=#d5e8d4;horizontalStack=0;resizeParent=1;resizeParentMax=0;resizeLast=0;collapsible=1;marginBottom=0;whiteSpace=wrap;html=1;strokeColor=#82b366;" parent="1" vertex="1" collapsed="1">
          <mxGeometry x="330" y="25" width="210" height="30" as="geometry">
            <mxRectangle x="320" y="10" width="200" height="52" as="alternateBounds" />
          </mxGeometry>
        </mxCell>
        <mxCell id="oGcL695DofoNEhs4g2Zo-7" value="+ description: type" style="text;strokeColor=none;fillColor=none;align=left;verticalAlign=top;spacingLeft=4;spacingRight=4;overflow=hidden;rotatable=0;points=[[0,0.5],[1,0.5]];portConstraint=eastwest;whiteSpace=wrap;html=1;" parent="oGcL695DofoNEhs4g2Zo-6" vertex="1">
          <mxGeometry y="26" width="200" height="26" as="geometry" />
        </mxCell>
        <mxCell id="oGcL695DofoNEhs4g2Zo-10" value="Mettre en page un document avec Scribus" style="swimlane;fontStyle=0;childLayout=stackLayout;horizontal=1;startSize=50;fillColor=#dae8fc;horizontalStack=0;resizeParent=1;resizeParentMax=0;resizeLast=0;collapsible=1;marginBottom=0;whiteSpace=wrap;html=1;strokeColor=#6c8ebf;" parent="1" vertex="1" collapsed="1">
          <mxGeometry x="345" y="240" width="180" height="50" as="geometry">
            <mxRectangle x="125" y="240" width="140" height="118" as="alternateBounds" />
          </mxGeometry>
        </mxCell>
        <mxCell id="oGcL695DofoNEhs4g2Zo-11" value="+ niveau : 1" style="text;strokeColor=none;fillColor=none;align=left;verticalAlign=top;spacingLeft=4;spacingRight=4;overflow=hidden;rotatable=0;points=[[0,0.5],[1,0.5]];portConstraint=eastwest;whiteSpace=wrap;html=1;" parent="oGcL695DofoNEhs4g2Zo-10" vertex="1">
          <mxGeometry y="40" width="140" height="26" as="geometry" />
        </mxCell>
        <mxCell id="oGcL695DofoNEhs4g2Zo-12" value="+ field: type" style="text;strokeColor=none;fillColor=none;align=left;verticalAlign=top;spacingLeft=4;spacingRight=4;overflow=hidden;rotatable=0;points=[[0,0.5],[1,0.5]];portConstraint=eastwest;whiteSpace=wrap;html=1;" parent="oGcL695DofoNEhs4g2Zo-10" vertex="1">
          <mxGeometry y="66" width="140" height="26" as="geometry" />
        </mxCell>
        <mxCell id="oGcL695DofoNEhs4g2Zo-13" value="+ field: type" style="text;strokeColor=none;fillColor=none;align=left;verticalAlign=top;spacingLeft=4;spacingRight=4;overflow=hidden;rotatable=0;points=[[0,0.5],[1,0.5]];portConstraint=eastwest;whiteSpace=wrap;html=1;" parent="oGcL695DofoNEhs4g2Zo-10" vertex="1">
          <mxGeometry y="92" width="140" height="26" as="geometry" />
        </mxCell>
        <mxCell id="1R7VQAPE6wTlqesCjZck-61" value="Niveau 1" style="ellipse;whiteSpace=wrap;html=1;aspect=fixed;fillColor=#fff2cc;strokeColor=#d6b656;fontSize=11;" parent="oGcL695DofoNEhs4g2Zo-10" vertex="1">
          <mxGeometry x="67.5" y="-5" width="45" height="45" as="geometry" />
        </mxCell>
        <mxCell id="oGcL695DofoNEhs4g2Zo-14" value="" style="endArrow=block;startArrow=block;endFill=1;startFill=1;html=1;rounded=0;" parent="1" source="oGcL695DofoNEhs4g2Zo-1" target="oGcL695DofoNEhs4g2Zo-10" edge="1">
          <mxGeometry width="160" relative="1" as="geometry">
            <mxPoint x="200" y="190" as="sourcePoint" />
            <mxPoint x="200" y="238" as="targetPoint" />
          </mxGeometry>
        </mxCell>
        <mxCell id="eibCnaNwIP3dnwmw9ZSM-1" value="Autres outils d&#39;Ã©dition" style="swimlane;fontStyle=0;childLayout=stackLayout;horizontal=1;startSize=26;fillColor=#e1d5e7;horizontalStack=0;resizeParent=1;resizeParentMax=0;resizeLast=0;collapsible=1;marginBottom=0;whiteSpace=wrap;html=1;strokeColor=#9673a6;" parent="1" vertex="1" collapsed="1">
          <mxGeometry x="360" y="90" width="150" height="50" as="geometry">
            <mxRectangle x="390" y="285" width="140" height="78" as="alternateBounds" />
          </mxGeometry>
        </mxCell>
        <mxCell id="eibCnaNwIP3dnwmw9ZSM-2" value="+ description: type" style="text;strokeColor=none;fillColor=none;align=left;verticalAlign=top;spacingLeft=4;spacingRight=4;overflow=hidden;rotatable=0;points=[[0,0.5],[1,0.5]];portConstraint=eastwest;whiteSpace=wrap;html=1;" parent="eibCnaNwIP3dnwmw9ZSM-1" vertex="1">
          <mxGeometry y="26" width="140" height="26" as="geometry" />
        </mxCell>
        <mxCell id="eibCnaNwIP3dnwmw9ZSM-3" value="+ contenu: type" style="text;strokeColor=none;fillColor=none;align=left;verticalAlign=top;spacingLeft=4;spacingRight=4;overflow=hidden;rotatable=0;points=[[0,0.5],[1,0.5]];portConstraint=eastwest;whiteSpace=wrap;html=1;" parent="eibCnaNwIP3dnwmw9ZSM-1" vertex="1">
          <mxGeometry y="52" width="140" height="26" as="geometry" />
        </mxCell>
        <mxCell id="eibCnaNwIP3dnwmw9ZSM-4" value="" style="endArrow=block;startArrow=block;endFill=1;startFill=1;html=1;rounded=0;" parent="1" source="oGcL695DofoNEhs4g2Zo-6" target="eibCnaNwIP3dnwmw9ZSM-1" edge="1">
          <mxGeometry width="160" relative="1" as="geometry">
            <mxPoint x="390" y="100" as="sourcePoint" />
            <mxPoint x="480" y="106" as="targetPoint" />
          </mxGeometry>
        </mxCell>
        <mxCell id="eibCnaNwIP3dnwmw9ZSM-5" value="" style="endArrow=block;startArrow=block;endFill=1;startFill=1;html=1;rounded=0;" parent="1" source="eibCnaNwIP3dnwmw9ZSM-1" target="oGcL695DofoNEhs4g2Zo-1" edge="1">
          <mxGeometry width="160" relative="1" as="geometry">
            <mxPoint x="570" y="80" as="sourcePoint" />
            <mxPoint x="570" y="110" as="targetPoint" />
          </mxGeometry>
        </mxCell>
      </root>
    </mxGraphModel>
  </diagram>
</mxfile>
